<svg viewBox="0 0 1080 1080" fill="none" xmlns="http://www.w3.org/2000/svg">
  <g clip-path="url(#a)">
    <path fill="#262628" d="M0 0h1080v1080H0z"/>
    <path fill="#E6E179" d="M0 0h1080v113H0zM0 967h1080v113H0z"/>
    <path fill="#E6E179" d="M1114 0v1080h-113V0zM79 0v1080H-34V0z"/>
    <path fill="#E6E179" d="M153 157H64V68h89zM187 967H98v-89h89zM967 967h-89v-89h89zM834 1024h-89v-89h89z"/>
    <path fill="#E6E179" d="M806 1011h-89v-89h89zM1045 639h-89v-89h89zM1057 550h-89v-89h89zM389 1010h-89v-89h89zM478 979h-89v-89h89zM556 157h-89V68h89zM108 357H19v-89h89zM133 479H44v-89h89zM108 787H19v-89h89z"/>
    <path fill="#E6E179" d="M601 184h-89V95h89zM1073 728h-89v-89h89zM967 202h-89v-89h89z"/>
    <path fill="#E6E179" d="M1029 170h-89V81h89zM878 157h-89V68h89z"/>
    <path fill="#7859D5" d="M193 81h62v63h-62zM892 756h62v63h-62zM569 902h31v32h-31zM208 296h31v32h-31zM552 125h33v35h-33zM954 1010h25v27h-25z"/>
    <g clip-path="url(#b)" fill="#FCF7F2">
      <path d="M450.626 374h-80.898v331.353h80.898V374Z"/>
      <path d="M450.983 705.353h-64.995L568.415 374h64.995L450.983 705.353ZM648.934 705.353h-64.973L766.388 374h64.973L648.934 705.353ZM248.995 705.353H184L366.427 374H431.4L248.995 705.353Z"/>
      <path d="M286.934 706H184l162.331-133.964 39.657 62.667L286.934 706ZM649.313 374h-80.898v331.353h80.898V374ZM848 374h-80.898v331.353H848V374Z"/>
    </g>
  </g>
  <defs>
    <clipPath id="a">
      <path fill="#fff" d="M0 0h1080v1080H0z"/>
    </clipPath>
    <clipPath id="b">
      <path fill="#fff" d="M184 374h664v332H184z"/>
    </clipPath>
  </defs>
</svg>
